<?xml version="1.0" encoding="UTF-8" standalone="no"?>
<svg
   viewBox="0 0 531.53056 46.303943"
   version="1.1"
   id="svg1"
   xmlns="http://www.w3.org/2000/svg"
   xmlns:svg="http://www.w3.org/2000/svg"
   xmlns:rdf="http://www.w3.org/1999/02/22-rdf-syntax-ns#"
   xmlns:cc="http://creativecommons.org/ns#"
   xmlns:dc="http://purl.org/dc/elements/1.1/">
  <defs
     id="defs1" />
  <title
     id="title1">Vejle Bibliotekernes logo</title>
  <desc
     id="desc1">Vejle Bibliotekerne</desc>
  <g
     transform="translate(-114.91881,101.87576)"
     id="g1">
    <g
       id="text1"
       style="font-weight:bold;font-size:70.5556px;line-height:1;font-family:'IBM Plex Mono';-inkscape-font-specification:'IBM Plex Mono Bold';letter-spacing:0.873125px;fill:#ff0000;stroke-width:0.264583"
       aria-label="VEJLE&#10;BIBLIOTEKERNE">
      <path
         style="font-weight:500;font-family:k2d;-inkscape-font-specification:'k2d Medium';fill:#ffffff"
         d="m 136.64993,-89.594774 q -2.61055,0 -3.59833,-2.469446 l -18.13279,-47.48392 q 0.635,-0.28222 1.55222,-0.49389 0.91723,-0.21167 1.62278,-0.21167 2.18722,0 3.66889,1.05834 1.55223,0.98778 2.25778,2.82222 l 12.27668,34.21947 -1.41112,3.880557 0.63501,0.211667 13.75834,-38.311694 q 0.70555,-1.83444 2.25778,-2.82222 1.55222,-1.05834 3.73944,-1.05834 1.41112,0 3.24556,0.70556 l -18.13279,47.48392 q -0.42333,1.199445 -1.41111,1.834446 -0.98778,0.635 -2.32834,0.635 z m 30.36531,-46.496146 q 0,-1.48166 1.12889,-2.46944 1.12889,-1.05834 2.75166,-1.05834 h 31.32669 q 0,3.38667 -1.34055,5.00945 -1.27001,1.55222 -4.02167,1.55222 h -22.22502 v 14.60501 h 19.40279 q 0,3.38667 -1.27,5.00945 -1.27,1.55223 -4.02167,1.55223 h -14.11112 v 15.098894 h 23.70668 q 2.68112,0 3.95112,1.622779 1.34055,1.552224 1.34055,4.938893 h -32.7378 q -1.62277,0 -2.75166,-0.987779 -1.12889,-1.058334 -1.12889,-2.540002 z m 58.16432,46.496146 q -5.08,0 -9.24278,-1.975557 -4.09223,-2.046112 -6.49112,-5.503337 -2.32833,-3.527782 -2.32833,-7.902232 0,-2.46944 2.04611,-3.59833 2.04611,-1.12889 5.57389,-1.12889 -0.21166,1.27 -0.21166,2.89278 0,5.00945 2.75167,7.761115 2.82222,2.751669 7.90222,2.751669 5.15056,0 7.90223,-2.89278 2.82223,-2.892784 2.82223,-8.113894 v -25.68224 h -8.04334 q -5.5739,0 -5.5739,-6.63223 h 17.56835 q 1.55222,0 2.54,0.98778 1.05833,0.98778 1.05833,2.54 v 28.78669 q 0,5.08 -2.32833,9.101672 -2.32834,4.02167 -6.56167,6.350005 -4.16278,2.257779 -9.3839,2.257779 z m 31.84709,-0.635 q -1.62278,0 -2.82222,-1.12889 -1.12889,-1.199445 -1.12889,-2.822224 v -40.075582 q 0,-5.99723 7.62,-5.99723 v 43.391699 h 20.74335 q 2.75167,0 4.23334,1.693334 1.48167,1.693335 1.48167,4.938893 z m 37.91478,-45.861146 q 0,-1.48166 1.12889,-2.46944 1.12889,-1.05834 2.75167,-1.05834 h 31.32669 q 0,3.38667 -1.34056,5.00945 -1.27,1.55222 -4.02167,1.55222 h -22.22502 v 14.60501 h 19.4028 q 0,3.38667 -1.27001,5.00945 -1.27,1.55223 -4.02166,1.55223 h -14.11113 v 15.098894 h 23.70669 q 2.68111,0 3.95111,1.622779 1.34056,1.552224 1.34056,4.938893 h -32.7378 q -1.62278,0 -2.75167,-0.987779 -1.12889,-1.058334 -1.12889,-2.540002 z"
         id="path2" />
      <path
         style="font-weight:100;font-family:k2d;-inkscape-font-specification:'k2d Thin';fill:#ffffff"
         d="m 119.36381,-17.828871 q -0.70555,0 -1.27,-0.564445 -0.56444,-0.564445 -0.56444,-1.270001 v -45.790586 q 0,-0.705556 0.49389,-1.199445 0.56444,-0.564445 1.34055,-0.564445 h 20.39057 q 5.36223,0 8.53723,3.598336 3.175,3.52778 3.175,9.525006 0,3.668891 -1.97556,6.843893 -1.905,3.104447 -4.79778,4.233337 v 0.141111 q 4.3039,1.199445 6.56167,4.233336 2.25778,2.963335 2.25778,7.54945 0,5.92667 -3.24555,9.595562 -3.17501,3.668891 -8.39612,3.668891 z m 20.24946,-26.387796 q 2.32834,0 4.30389,-1.340556 1.97556,-1.340557 3.10445,-3.598336 1.19944,-2.328335 1.19944,-5.009448 0,-4.656669 -2.25778,-7.196671 -2.25777,-2.610557 -6.35,-2.610557 H 121.1277 v 19.755568 z m 1.41111,23.142238 q 4.37445,0 6.77334,-2.610557 2.46945,-2.681113 2.46945,-7.408338 0,-4.65667 -2.46945,-7.196672 -2.39889,-2.610557 -6.77334,-2.610557 H 121.1277 v 19.826124 z M 165.322,-63.972235 q 0,-1.834446 0.91722,-2.822225 0.91722,-1.058334 2.68111,-1.058334 v 46.778365 q 0,1.905001 -0.91722,2.89278 -0.91722,0.987778 -2.68111,0.987778 z m 19.00588,46.143364 q -0.70556,0 -1.27,-0.564445 -0.56445,-0.564445 -0.56445,-1.270001 v -45.790586 q 0,-0.705556 0.49389,-1.199445 0.56445,-0.564445 1.34056,-0.564445 h 20.39057 q 5.36222,0 8.53722,3.598336 3.17501,3.52778 3.17501,9.525006 0,3.668891 -1.97556,6.843893 -1.905,3.104447 -4.79778,4.233337 v 0.141111 q 4.30389,1.199445 6.56167,4.233336 2.25778,2.963335 2.25778,7.54945 0,5.92667 -3.24556,9.595562 -3.175,3.668891 -8.39611,3.668891 z m 20.24946,-26.387796 q 2.32833,0 4.30389,-1.340556 1.97555,-1.340557 3.10444,-3.598336 1.19945,-2.328335 1.19945,-5.009448 0,-4.656669 -2.25778,-7.196671 -2.25778,-2.610557 -6.35,-2.610557 h -18.48557 v 19.755568 z m 1.41111,23.142238 q 4.37445,0 6.77334,-2.610557 2.46944,-2.681113 2.46944,-7.408338 0,-4.65667 -2.46944,-7.196672 -2.39889,-2.610557 -6.77334,-2.610557 h -19.89668 v 19.826124 z m 24.72094,3.245558 q -0.77611,0 -1.34055,-0.493889 -0.49389,-0.49389 -0.49389,-1.199446 v -44.450029 q 0,-1.834446 0.91722,-2.822225 0.98778,-1.058334 2.68111,-1.058334 v 46.778365 h 24.41224 q 3.45723,0 3.45723,3.245558 z m 40.73699,-46.143364 q 0,-1.834446 0.91723,-2.822225 0.91722,-1.058334 2.68111,-1.058334 v 46.778365 q 0,1.905001 -0.91722,2.89278 -0.91723,0.987778 -2.68112,0.987778 z m 36.15088,46.778364 q -5.92667,0 -10.37167,-2.257779 -4.445,-2.328335 -6.91445,-6.42056 -2.39889,-4.16278 -2.39889,-9.383895 v -14.746121 q 0,-5.221115 2.39889,-9.242784 2.39889,-4.092225 6.84389,-6.350004 4.44501,-2.25778 10.44223,-2.25778 5.99723,0 10.44223,2.25778 4.44501,2.257779 6.8439,6.350004 2.39889,4.021669 2.39889,9.242784 v 14.746121 q 0,5.221115 -2.46945,9.383895 -2.39889,4.092225 -6.84389,6.42056 -4.44501,2.257779 -10.37168,2.257779 z m 0,-3.245557 q 7.83168,0 11.99446,-3.951114 4.16278,-4.02167 4.16278,-10.865563 V -49.93167 q 0,-6.773338 -4.16278,-10.724452 -4.16278,-3.951114 -11.99446,-3.951114 -7.83167,0 -11.99445,3.951114 -4.16278,3.951114 -4.16278,10.724452 v 14.675565 q 0,6.843893 4.16278,10.865563 4.16278,3.951114 11.99445,3.951114 z m 41.44255,-43.532807 h -17.35667 q 0,-3.245558 3.31611,-3.245558 h 34.99558 q 0,3.245558 -3.31612,3.245558 h -14.04056 v 42.897806 q 0,1.834446 -0.91722,2.89278 -0.91723,0.987778 -2.68112,0.987778 z m 30.64755,-1.481668 q 0,-0.705556 0.49389,-1.199445 0.56444,-0.564445 1.34055,-0.564445 h 31.04447 q 0,3.245558 -3.52778,3.245558 h -25.7528 v 19.614457 h 20.8139 q 0,3.316114 -3.59833,3.316114 h -17.21557 v 19.967235 h 27.23446 q 3.45723,0 3.45723,3.245558 H 381.5218 q -0.77611,0 -1.34055,-0.493889 -0.49389,-0.564445 -0.49389,-1.340557 z m 44.68817,1.411112 q 0,-1.834446 0.91722,-2.822224 0.98778,-0.987779 2.68111,-0.987779 v 26.105574 l 28.08113,-26.105574 q 1.05834,1.12889 1.05834,2.116668 0,1.340557 -1.27,2.540002 l -19.47335,18.13279 23.49502,27.375574 q -0.98778,0.493889 -1.97556,0.493889 -1.905,0 -2.96334,-1.340556 l -20.95501,-24.341683 -5.99723,5.573893 v 16.227788 q 0,1.834446 -0.91722,2.89278 -0.91722,0.987778 -2.68111,0.987778 z m 45.88763,-1.411112 q 0,-0.705556 0.49389,-1.199445 0.56445,-0.564445 1.34056,-0.564445 h 31.04446 q 0,3.245558 -3.52778,3.245558 H 473.8615 v 19.614457 h 20.8139 q 0,3.316114 -3.59834,3.316114 H 473.8615 v 19.967235 h 27.23446 q 3.45722,0 3.45722,3.245558 h -32.45557 q -0.77611,0 -1.34056,-0.493889 -0.49389,-0.564445 -0.49389,-1.340557 z m 44.68817,0 q 0,-0.776112 0.49389,-1.270001 0.56445,-0.493889 1.34056,-0.493889 h 20.24946 q 3.95111,0 7.12611,1.76389 3.175,1.76389 4.93889,4.938892 1.76389,3.104447 1.76389,7.05556 0,4.162781 -1.97555,7.267228 -1.97556,3.104446 -5.85612,4.868336 v 0.211667 q 3.31612,1.199445 5.15056,4.092225 1.905,2.822224 1.905,6.702782 v 9.242784 q 0,1.905001 -0.91722,2.89278 -0.91722,0.987778 -2.68111,0.987778 v -12.700008 q 0,-4.65667 -2.32834,-7.126116 -2.32833,-2.540002 -6.63222,-2.540002 h -18.97946 v 18.485568 q 0,1.905001 -0.91722,2.89278 -0.91723,0.987778 -2.68112,0.987778 z m 22.15446,22.577793 q 4.44501,0 7.19667,-2.89278 2.82223,-2.963335 2.82223,-7.690561 0,-4.797781 -2.75167,-7.620005 -2.68111,-2.892779 -7.26723,-2.892779 h -18.55612 v 21.096125 z m 25.21487,-21.166681 q 0,-1.834446 0.91722,-2.822224 0.98778,-0.987779 2.75167,-0.987779 l 31.32669,46.355032 0.21166,-0.211667 -1.12889,-1.834446 v -44.308919 q 1.76389,0 2.68112,1.058334 0.91722,0.987779 0.91722,2.822225 v 42.827251 q 0,3.951113 -3.81,3.951113 l -31.11502,-46.143364 -0.35278,0.211667 1.19944,1.834445 v 40.216694 q 0,1.905001 -0.91722,2.89278 -0.91722,0.987778 -2.68111,0.987778 z m 49.83871,-1.411112 q 0,-0.705556 0.49389,-1.199445 0.56445,-0.564445 1.34056,-0.564445 h 31.04446 q 0,3.245558 -3.52778,3.245558 h -25.75279 v 19.614457 h 20.8139 q 0,3.316114 -3.59834,3.316114 h -17.21556 v 19.967235 h 27.23446 q 3.45722,0 3.45722,3.245558 h -32.45557 q -0.77611,0 -1.34056,-0.493889 -0.49389,-0.564445 -0.49389,-1.340557 z"
         id="path3" />
    </g>
  </g>
  <metadata
     id="metadata1">
    <rdf:RDF>
      <cc:Work
         rdf:about="">
        <dc:title>Vejle Bibliotekernes logo</dc:title>
      </cc:Work>
    </rdf:RDF>
  </metadata>
</svg>
