<?xml version="1.0" encoding="UTF-8" standalone="no"?>
<svg
   version="1.1"
   id="svg1"
   viewBox="0 0 941.58668 375.09198"
   width="941.58667"
   height="375.09198"
   xmlns="http://www.w3.org/2000/svg"
   xmlns:svg="http://www.w3.org/2000/svg"
   xmlns:rdf="http://www.w3.org/1999/02/22-rdf-syntax-ns#"
   xmlns:cc="http://creativecommons.org/ns#"
   xmlns:dc="http://purl.org/dc/elements/1.1/">
  <title
     id="title1">Vejle Museernes logo</title>
  <desc
     id="desc1">Vejle Museerne</desc>
  <defs
     id="defs1" />
  <g
     id="g1"
     transform="translate(0,-0.00133938)">
    <g
       id="group-R5">
      <path
         id="path2"
         d="M 6576.39,340.809 V 521.68 h 308.44 V 771.102 H 6576.39 V 946.27 h 485.51 v 321.76 H 6123.24 V 0 H 7061.9 V 340.809 Z M 6123.24,1510.88 h 938.66 v 340.81 h -485.51 v 180.88 h 308.44 v 249.41 h -308.44 v 175.17 h 485.51 v 321.77 h -938.66 z m -735.46,913.9 c 0,49.51 34.27,79.97 93.29,79.97 74.25,0 106.62,-59.02 106.62,-118.05 v -26.65 h 392.22 v 57.12 c 0,220.86 -165.65,396.02 -498.84,396.02 -371.27,0 -519.78,-192.3 -519.78,-413.16 0,-409.35 599.75,-384.6 599.75,-531.21 0,-51.4 -34.28,-81.86 -104.72,-81.86 -76.16,0 -116.14,49.5 -116.14,121.85 v 19.04 h -392.22 v -57.12 c 0,-220.86 167.55,-396.02 517.88,-396.02 365.56,0 521.68,199.91 521.68,420.77 0,409.35 -599.74,367.47 -599.74,529.3 M 5232.41,1268.03 H 2292.91 V 0 H 5255.26 V 552.148 L 5325.71,420.77 5569.41,0 h 378.89 v 1268.03 h -401.73 v -533.1 l -57.12,102.808 z m -408.57,640.78 v 870.11 h -426.49 v -860.59 c 0,-72.35 -26.66,-108.53 -99.01,-108.53 -66.64,0 -97.1,36.18 -97.1,108.53 v 860.59 h -455.05 v -870.11 c 0,-253.23 175.17,-434.1 544.54,-434.1 373.17,0 533.11,180.87 533.11,434.1 M 3140.56,1510.88 h 434.11 v 1268.04 h -582.62 l -112.33,-460.76 -32.37,-144.7 -32.36,144.7 -114.24,460.76 H 0 V 1510.88 h 2474.18 v 675.91 l 47.6,-188.49 116.14,-487.42 h 329.38 l 125.66,487.42 47.6,188.49 z M 582.477,2543.5 470.82,2175.36 H 342.023 L 234.238,2543.5 H 371.32 l 43.668,-207.84 43.117,207.84 z M 898.094,2175.36 H 625.578 v 368.14 h 272.516 v -93.41 H 757.137 v -50.86 h 89.547 v -72.41 h -89.547 v -52.51 h 140.957 z m 339.396,128.25 c 0,-79.6 -42.56,-138.75 -150.35,-138.75 -96.738,0 -139.3,54.73 -139.3,123.82 v 37.03 h 113.32 v -37.03 c 0,-17.14 7.74,-25.98 23.21,-25.98 15.48,0 22.11,9.4 22.11,25.98 v 254.82 h 131.01 z m 332.2,-128.25 H 1301.6 v 368.14 h 131 v -269.19 h 137.09 z m 325.02,0 H 1622.2 v 368.14 h 272.51 v -93.41 h -140.95 v -50.86 h 89.54 v -72.41 h -89.54 v -52.51 h 140.95 z M 938.652,1268.03 H 0 V 0 H 938.652 V 340.809 H 453.145 V 521.68 H 761.586 V 771.102 H 453.145 V 946.27 h 485.507 z m 787.848,0 H 1088.67 V 0 h 451.24 v 472.18 h 47.6 c 83.77,0 100.91,-41.891 100.91,-114.239 V 196.109 C 1688.42,99 1728.4,0 1787.43,0 h 386.5 V 9.51953 C 2145.37,68.5391 2124.43,131.371 2124.43,211.34 v 165.64 c 0,119.95 -55.22,215.149 -196.11,236.09 137.08,32.371 198.01,119.95 198.01,247.52 v 76.16 c 0,215.14 -161.84,331.28 -399.83,331.28 m -41.89,-485.499 c 0,-49.511 -22.85,-74.261 -76.16,-74.261 h -68.54 v 260.839 h 68.54 c 53.31,0 76.16,-19.039 76.16,-70.437 V 782.531"
         style="fill:#ffffff;fill-opacity:1;fill-rule:nonzero;stroke:none"
         transform="matrix(0.13333333,0,0,-0.13333333,0,375.09333)" />
    </g>
  </g>
  <metadata
     id="metadata1">
    <rdf:RDF>
      <cc:Work
         rdf:about="">
        <dc:title>Vejle Museernes logo</dc:title>
      </cc:Work>
    </rdf:RDF>
  </metadata>
</svg>
