<?xml version="1.0" encoding="UTF-8" standalone="no"?>
<svg
   height="25px"
   viewBox="0 0 210.86725 57.336999"
   aria-hidden="true"
   version="1.1"
   id="svg1"
   xmlns="http://www.w3.org/2000/svg"
   xmlns:svg="http://www.w3.org/2000/svg"
   xmlns:rdf="http://www.w3.org/1999/02/22-rdf-syntax-ns#"
   xmlns:cc="http://creativecommons.org/ns#"
   xmlns:dc="http://purl.org/dc/elements/1.1/">
  <defs
     id="defs1" />
  <title
     id="title1">Spinderihallernes logo</title>
  <desc
     id="desc1">Spinderihallerne</desc>
  <g
     fill="#ffffff"
     fill-rule="evenodd"
     id="g1"
     transform="translate(-139.17238)">
    <path
       d="m 4.432,40.917 v -3.91 h 15.244 v 2.087 l 4.432,0.521 v -4.04 c 0,-0.65 -0.127,-1.302 -0.648,-1.695 C 23.065,33.363 22.545,33.1 21.763,33.1 H 2.218 c -0.522,0 -1.04,0.263 -1.563,0.78 C 0.133,34.273 0,34.925 0,35.575 v 6.907 c 0,0.652 0.133,1.303 0.655,1.691 0.522,0.521 1.041,0.655 1.563,0.655 h 17.458 v 3.777 H 4.432 V 46.781 L 0,46.131 v 3.906 c 0,0.784 0.133,1.306 0.655,1.828 0.522,0.392 1.041,0.78 1.563,0.78 h 19.545 c 0.782,0 1.302,-0.388 1.697,-0.78 0.521,-0.522 0.648,-1.044 0.648,-1.828 v -6.645 c 0,-0.65 -0.127,-1.297 -0.648,-1.694 -0.395,-0.652 -0.915,-0.78 -1.697,-0.78 H 4.433 Z m 53.686,-5.342 c 0,-0.65 -0.127,-1.302 -0.648,-1.694 -0.523,-0.517 -1.045,-0.78 -1.825,-0.78 H 36.357 c -0.648,0 -1.304,0.263 -1.826,0.78 -0.388,0.517 -0.649,1.172 -0.649,1.824 v 21.632 h 4.821 v -4.692 h 16.942 c 0.78,0 1.302,-0.388 1.825,-0.78 0.521,-0.52 0.648,-1.044 0.648,-1.828 V 35.576 Z M 38.703,47.825 H 53.298 V 37.792 H 38.703 Z M 67.896,33.1 h 4.821 v -4.82 h -4.821 z m -0.001,19.545 h 4.821 v -17.07 h -4.821 z m 38.831,-17.07 c 0,-0.65 -0.26,-1.302 -0.648,-1.694 -0.527,-0.517 -1.177,-0.78 -1.827,-0.78 H 84.832 c -0.65,0 -1.304,0.263 -1.693,0.78 -0.388,0.392 -0.649,1.044 -0.649,1.694 v 17.07 h 4.821 V 37.921 h 14.462 v 14.724 h 4.953 z m 34.011,-7.299 h -4.954 v 4.82 h -16.937 c -0.786,0 -1.304,0.263 -1.696,0.785 -0.522,0.393 -0.65,1.044 -0.65,1.695 V 50.04 c 0,0.78 0.128,1.303 0.65,1.824 0.392,0.389 0.91,0.78 1.696,0.78 h 19.416 c 0.649,0 1.17,-0.391 1.692,-0.78 0.392,-0.521 0.783,-1.043 0.783,-1.824 z m -19.55,19.548 h 14.596 V 37.792 h -14.595 v 10.032 z m 33.754,-2.996 h 17.202 c 0.781,0 1.3,-0.262 1.823,-0.65 0.522,-0.527 0.651,-1.044 0.651,-1.695 v -6.908 c 0,-0.65 -0.13,-1.306 -0.65,-1.695 -0.525,-0.52 -1.043,-0.78 -1.824,-0.78 h -19.288 c -0.781,0 -1.302,0.26 -1.692,0.78 -0.523,0.39 -0.654,1.045 -0.654,1.695 V 50.04 c 0,0.777 0.132,1.303 0.654,1.825 0.39,0.387 0.91,0.781 1.691,0.781 h 19.29 c 0.78,0 1.298,-0.394 1.822,-0.78 0.522,-0.523 0.651,-1.049 0.651,-1.826 v -3.909 l -4.558,0.65 v 1.824 H 154.94 v -3.777 z m 0,-4.04 h 15.118 V 37.01 H 154.94 v 3.777 z m 48.866,-0.392 4.821,0.521 v -5.213 c 0,-0.779 -0.129,-1.3 -0.783,-1.828 -0.26,-0.513 -1.043,-0.776 -1.692,-0.776 h -21.76 v 19.545 h 4.82 V 37.787 h 14.594 v 2.61 z M 216.318,33.1 h 4.952 v -4.82 h -4.952 z m -0.005,19.545 h 4.953 v -17.07 h -4.953 z m 38.97,-24.369 h -4.956 v 9.774 h -14.464 v -9.774 h -4.82 v 24.37 h 4.82 v -9.9 h 14.464 v 9.9 h 4.956 z m 24.231,0 h -4.95 l -10.684,24.37 h 5.212 l 2.342,-5.212 h 11.34 l 2.216,5.212 h 5.208 z m -2.47,6.128 3.906,8.596 h -7.689 l 3.781,-8.596 z m 46.126,7.816 -4.822,0.65 v 5.214 H 303.753 V 28.276 h -4.818 v 24.37 h 24.235 z m 32.579,0 -4.82,0.65 v 5.214 H 336.334 V 28.276 h -4.821 v 24.37 h 24.236 z m 32.578,-9.382 V 28.28 h -24.373 v 24.366 h 24.373 v -4.562 h -19.55 v -5.342 h 14.592 V 38.18 h -14.591 v -5.342 z m 32.187,-3.778 c -0.392,-0.521 -0.919,-0.78 -1.694,-0.78 h -21.895 v 24.365 h 4.69 v -9.9 h 6.387 l 7.295,9.9 h 6.126 l -7.295,-9.9 h 4.692 c 0.775,0 1.302,-0.262 1.694,-0.654 0.384,-0.392 0.78,-1.044 0.78,-1.695 V 30.75 c 0,-0.781 -0.396,-1.302 -0.78,-1.69 z m -18.899,9.383 h 14.983 v -5.864 h -14.983 z m 53.69,-10.167 h -4.953 v 16.81 l -14.596,-16.81 h -4.82 v 24.37 h 4.82 V 35.705 l 14.596,16.94 h 4.953 z m 14.332,14.466 h 14.6 v -4.558 h -14.6 v -5.342 h 19.55 v -4.566 h -24.24 v 24.369 h 24.24 v -4.561 h -19.55 z M 489.212,0 h -2.733 L 467.587,20.07 V 0 h -2.74 l -18.9,20.07 V 0 h -2.865 L 420.41,24.236 h 3.776 L 443.082,4.17 v 19.937 h 2.61 L 464.714,4.17 v 19.937 h 2.738 L 486.346,4.17 v 19.808 h 2.866 z"
       id="path1" />
  </g>
  <metadata
     id="metadata1">
    <rdf:RDF>
      <cc:Work
         rdf:about="">
        <dc:title>Spinderihallernes logo</dc:title>
      </cc:Work>
    </rdf:RDF>
  </metadata>
</svg>
