<?xml version="1.0" encoding="UTF-8" standalone="no"?>
<svg
   version="1.0"
   width="300.000000pt"
   height="300.000000pt"
   viewBox="0 0 300.000000 300.000000"
   preserveAspectRatio="xMidYMid meet"
   id="svg3"
   sodipodi:docname="safari-pinned-tab.svg"
   xml:space="preserve"
   inkscape:version="1.4.1 (93de688d07, 2025-03-30)"
   xmlns:inkscape="http://www.inkscape.org/namespaces/inkscape"
   xmlns:sodipodi="http://sodipodi.sourceforge.net/DTD/sodipodi-0.dtd"
   xmlns="http://www.w3.org/2000/svg"
   xmlns:svg="http://www.w3.org/2000/svg"><defs
     id="defs3" /><sodipodi:namedview
     id="namedview3"
     pagecolor="#ffffff"
     bordercolor="#000000"
     borderopacity="0.25"
     inkscape:showpageshadow="2"
     inkscape:pageopacity="0.0"
     inkscape:pagecheckerboard="0"
     inkscape:deskcolor="#d1d1d1"
     inkscape:document-units="pt"
     inkscape:zoom="0.605"
     inkscape:cx="66.942149"
     inkscape:cy="348.76033"
     inkscape:window-width="954"
     inkscape:window-height="613"
     inkscape:window-x="0"
     inkscape:window-y="0"
     inkscape:window-maximized="1"
     inkscape:current-layer="svg3" /><metadata
     id="metadata1">
Created by potrace 1.14, written by Peter Selinger 2001-2017
</metadata><path
     id="rect7"
     style="fill:#000000;stroke:none;stroke-width:1.13386;stroke-dasharray:none"
     d="M 79.999512 0 C 35.679512 -1.4210855e-14 0 35.679512 0 79.999512 L 0 220.00049 C 7.1054274e-15 264.32049 35.679512 300 79.999512 300 L 220.00049 300 C 264.32049 300 300 264.32049 300 220.00049 L 300 79.999512 C 300 35.679512 264.32049 0 220.00049 0 L 79.999512 0 z M 149.06982 22.003418 C 170.12324 22.003531 187.19015 39.071097 187.18945 60.124512 C 187.18898 77.655833 175.23161 92.926462 158.21191 97.130859 L 158.21191 160.53955 L 158.21191 160.54395 L 158.21191 160.5498 L 158.21191 160.69043 L 158.20898 160.69043 C 158.06579 163.28557 154.1901 165.34862 149.45801 165.34863 C 144.72591 165.34863 140.85022 163.28557 140.70703 160.69043 L 140.70264 160.69043 L 140.70264 160.54395 L 140.70264 97.313965 C 123.30862 93.400494 110.95053 77.953343 110.9502 60.124512 C 110.9495 39.071101 128.01641 22.003537 149.06982 22.003418 z M 136.82813 108.47168 L 136.82813 133.98193 C 109.96337 136.99996 90.944866 148.59152 90.944824 161.94727 C 90.944768 177.80238 117.48514 190.65545 150.22412 190.65527 C 182.96253 190.65505 209.50201 177.8021 209.50195 161.94727 C 209.50158 148.24063 189.4934 136.44603 161.729 133.78564 L 161.729 108.6958 L 275.68359 161.56494 L 275.68359 165.35303 L 150.93018 224.8418 L 26.963379 165.96094 L 26.963379 160.84717 L 136.82813 108.47168 z M 68.261719 151.32568 C 63.658568 151.32568 59.489798 152.04809 56.421387 153.24756 C 54.887182 153.84729 53.626414 154.56448 52.718262 155.40381 C 51.81011 156.24313 51.241699 157.24076 51.241699 158.32471 C 51.241699 158.45173 51.249897 158.57666 51.265137 158.70117 C 51.232957 158.53448 51.216829 158.36737 51.216797 158.2002 L 51.216797 167.18701 L 51.221191 167.18701 C 51.218691 167.22852 51.217272 167.27002 51.216797 167.31152 C 51.216293 170.99157 58.847626 173.97499 68.261719 173.9751 C 77.676384 173.9753 85.308609 170.9918 85.308105 167.31152 C 85.307605 167.27001 85.306211 167.22851 85.303711 167.18701 L 85.308105 167.18701 L 85.308105 158.23096 C 85.306335 158.39669 85.288741 158.56233 85.255371 158.72754 C 85.272741 158.59457 85.281738 158.46055 85.281738 158.32471 C 85.281738 157.24076 84.714793 156.24313 83.806641 155.40381 C 82.898488 154.56448 81.637721 153.84729 80.103516 153.24756 C 77.035105 152.04809 72.864869 151.32568 68.261719 151.32568 z M 68.106445 153.65039 C 71.99289 153.65039 75.511206 154.17812 78.013184 155.0083 C 79.264172 155.42339 80.258877 155.91591 80.915039 156.43066 C 81.5712 156.94541 81.877441 157.45661 81.877441 157.96582 C 81.877441 158.47503 81.5712 158.98623 80.915039 159.50098 C 80.258877 160.01573 79.264172 160.50824 78.013184 160.92334 C 75.511206 161.75351 71.99289 162.28125 68.106445 162.28125 C 64.219998 162.28125 60.704615 161.75351 58.202637 160.92334 C 56.951649 160.50824 55.956942 160.01573 55.300781 159.50098 C 54.644621 158.98623 54.336914 158.47503 54.336914 157.96582 C 54.336914 157.45661 54.644621 156.94541 55.300781 156.43066 C 55.956942 155.91591 56.951649 155.42339 58.202637 155.0083 C 60.704615 154.17812 64.219998 153.65039 68.106445 153.65039 z M 275.68359 182.5415 L 275.68359 211.67285 L 150.93018 276.13623 L 26.963379 212.91357 L 26.963379 184.40039 L 150.93018 242.04492 L 275.68359 182.5415 z " /></svg>
