<?xml version="1.0" encoding="UTF-8" standalone="no"?>
<svg
   version="1.0"
   width="300pt"
   height="300pt"
   viewBox="0 0 300 300"
   preserveAspectRatio="xMidYMid"
   id="svg3"
   xml:space="preserve"
   xmlns="http://www.w3.org/2000/svg"
   xmlns:svg="http://www.w3.org/2000/svg"><defs
     id="defs3" /><metadata
     id="metadata1">
Created by potrace 1.14, written by Peter Selinger 2001-2017
</metadata><rect
     style="fill:#000000;stroke:none;stroke-width:1.13386;stroke-dasharray:none"
     id="rect7"
     width="300"
     height="300"
     x="-8.2958465e-08"
     y="-5.5490009e-08"
     rx="80"
     ry="80" /><g
     id="g1"
     transform="translate(9.2703466,10.211047)"><path
       id="rect42-6-3-0"
       style="fill:#ffffff;fill-opacity:1;stroke:none;stroke-width:28.3464;stroke-dasharray:none"
       d="m 140.73047,12.72217 a 40.097252,40.097252 0 0 0 -40.09717,40.097168 40.097252,40.097252 0 0 0 30.8291,39.011718 v 58.186524 a 9.269268,6.1795081 0 0 0 9.26807,6.17871 A 9.269268,6.1795081 0 0 0 150,150.01758 9.269268,6.1795081 0 0 0 150,150 V 91.831056 A 40.097252,40.097252 0 0 0 180.82764,52.819338 40.097252,40.097252 0 0 0 140.73047,12.72217 Z M 76.37771,149.40715 a 15.754692,7.9071589 0 0 1 -15.75469,7.90716 15.754692,7.9071589 0 0 1 -15.75469,-7.90716 15.754692,7.9071589 0 0 1 15.75469,-7.90716 15.754692,7.9071589 0 0 1 15.75469,7.90716 z m 49.71752,-51.584869 a 34.962617,34.962617 0 0 0 -1.06348,0.508282 L 24.03808,148.69484 a 8.0779545,8.0779545 0 0 0 0,14.45798 l 100.85305,50.29394 a 35.277511,35.277511 0 0 0 31.48682,0 l 101.13131,-50.43163 a 7.9233854,7.9233854 0 0 0 0,-14.18114 L 156.23729,98.330563 a 34.962617,34.962617 0 0 0 -0.87155,-0.420399 v 34.552726 a 53.848547,26.924276 0 0 1 39.21386,25.91164 53.848547,26.924276 0 0 1 -53.84912,26.9238 53.848547,26.924276 0 0 1 -53.84768,-26.9238 53.848547,26.924276 0 0 1 39.21243,-25.91164 z M 60.62256,139.96582 h 10e-4 a 18.81115,9.4411717 0 0 1 18.81005,9.44092 18.81115,9.4411717 0 0 1 0,0.0425 v 6.1714 0.009 c 8e-5,5.21427 -8.42227,9.44096 -18.81152,9.44092 -10.38913,0 -18.8116,-4.22673 -18.81152,-9.44092 v -6.21827 a 18.81115,9.4411717 0 0 1 0,-0.004 18.81115,9.4411717 0 0 1 18.81199,-9.44093 z m -41.05982,29.13613 v 36.76845 h 0.004 c 0.0902,2.97325 1.80723,5.65633 4.46919,6.98388 l 100.85351,50.29377 c 9.91339,4.94358 21.57314,4.94358 31.48653,0 L 257.5072,212.71596 c 2.60952,-1.30141 4.29333,-3.93096 4.38348,-6.8456 h 0.004 v -0.17728 c 3.8e-4,-0.0452 3.8e-4,-0.0904 0,-0.13551 v -36.45562 h -0.005 c -0.10007,2.90429 -1.78204,5.52073 -4.3826,6.81766 L 156.37662,226.3517 c -9.91339,4.94363 -21.57314,4.94363 -31.48653,0 L 24.03658,176.05801 c -2.65304,-1.32307 -4.36819,-3.99308 -4.46835,-6.95606 z" /></g></svg>
